# AST/ASF file generated using VICON BodyLanguage
# -----------------------------------------------
:version 1.10
:name VICON
:units
  mass 1.0
  length 0.45
  angle deg
:documentation
   .ast/.asf automatically generated from VICON data using
   VICON BodyBuilder and BodyLanguage model FoxedUp or BRILLIANT.MOD
:root
   order TX TY TZ RX RY RZ
   axis XYZ
   position 0 0 0  
   orientation 0 0 0 
:bonedata
  begin
     id 1 
     name lhipjoint
     direction 0.646657 -0.683706 0.338203 
     length 2.4948 
     axis 0 0 0  XYZ
  end
  begin
     id 2 
     name lfemur
     direction 0.34202 -0.939693 0  
     length 6.79491  
     axis 0 0 20  XYZ
    dof rx ry rz
    limits (-160.0 20.0)
           (-70.0 70.0)
           (-60.0 70.0)
  end
  begin
     id 3 
     name ltibia
     direction 0.34202 -0.939693 0   
     length 7.56807   
     axis 0 0 20   XYZ
    dof rx
    limits (-10.0 170.0)
  end
  begin
     id 4 
     name lfoot
     direction 0.0679796 -0.186772 0.980048   
     length 2.53018   
     axis -90 7.62852e-016 20   XYZ
    dof rx rz
    limits (-45.0 90.0)
           (-70.0 20.0)
  end
  begin
     id 5 
     name ltoes
     direction 1.53625e-011 -4.21881e-011 1   
     length 1.26912   
     axis -90 7.62852e-016 20   XYZ
    dof rx
    limits (-90.0 20.0)
  end
  begin
     id 6 
     name rhipjoint
     direction -0.618868 -0.704065 0.348274   
     length 2.42265  
     axis 0 0 0  XYZ 
  end
  begin
     id 7 
     name rfemur
     direction -0.34202 -0.939693 0   
     length 6.73814   
     axis 0 0 -20   XYZ
    dof rx ry rz
    limits (-160.0 20.0)
           (-70.0 70.0)
           (-70.0 60.0)
  end
  begin
     id 8 
     name rtibia
     direction -0.34202 -0.939693 0   
     length 7.66799   
     axis 0 0 -20   XYZ
    dof rx
    limits (-10.0 170.0)
 end
 begin
     id 9 
     name rfoot
     direction -0.0727352 -0.199838 0.977125   
     length 2.57224  
     axis -90 -7.62852e-016 -20   XYZ
    dof rx rz
    limits (-45.0 90.0)
           (-20.0 70.0)
  end
  begin
     id 10 
     name rtoes
     direction -1.53501e-011 -4.21858e-011 1   
     length 1.28858   
     axis -90 -7.62852e-016 -20   XYZ
    dof rx
    limits (-90.0 20.0)
  end
  begin
     id 11 
     name lowerback
     direction -0.0172471 0.995767 -0.0902851   
     length 2.20206   
     axis 0 0 0   XYZ
    dof rx ry rz
    limits (-20.0 45.0)
           (-30.0 30.0)
           (-30.0 30.0)
  end
  begin
     id 12 
     name upperback
     direction -0.000110737 0.999714 0.0239043   
     length 2.19523   
     axis 0 0 0   XYZ
    dof rx ry rz
    limits (-20.0 45.0)
           (-30.0 30.0)
           (-30.0 30.0)
  end
  begin
     id 13 
     name thorax
     direction 0.00704869 0.997783 0.0661741   
     length 2.21977   
     axis 0 0 0   XYZ
    dof rx ry rz
    limits (-20.0 45.0)
           (-30.0 30.0)
           (-30.0 30.0)
  end
  begin
     id 14 
     name lowerneck
     direction -0.00407501 0.995527 0.0943846   
     length 1.83142   
     axis 0 0 0   XYZ
    dof rx ry rz
    limits (-20.0 45.0)
           (-30.0 30.0)
           (-30.0 30.0)
  end
  begin
     id 15 
     name upperneck
     direction 0.0640586 0.986486 -0.150807   
     length 1.84616   
     axis 0 0 0   XYZ
    dof rx ry rz
    limits (-20.0 45.0)
           (-30.0 30.0)
           (-30.0 30.0)
  end
  begin
     id 16
     name head
     direction 0.0188017 0.99791 -0.0618239  
     length 1.85932  
     axis 0 0 0   XYZ
    dof rx ry rz
    limits (-20.0 45.0)
           (-30.0 30.0)
           (-30.0 30.0)
  end
  begin
     id 17 
     name lclavicle
     direction 0.976074 0.206905 0.066852  
     length 3.81043  
     axis 0 0 0   XYZ
    dof ry rz
    limits (-20.0 10.0)
           (0.0 20.0)
  end
  begin
     id 18 
     name lhumerus
     direction 1 -4.48971e-011 1.86916e-027   
     length 5.37587   
     axis 180 -30 -90   XYZ
    dof rx ry rz
    limits (-60.0 90.0)
           (-90.0 90.0)
           (-90.0 90.0)
  end
  begin
     id 19
     name lradius
     direction 1 -4.48968e-011 1.69187e-027   
     length 3.35977   
     axis 180 -30 -90   XYZ
    dof rx
    limits (-10.0 170.0)
  end
  begin
     id 20
     name lwrist
     direction 1 -4.48968e-011 5.8978e-027   
     length 1.67988   
     axis -3.27506e-015 90 90   XYZ
    dof ry
    limits (-180.0 0.0)
 end
  begin
     id 21 
     name lhand
     direction 1 -4.49028e-011 1.18071e-026   
     length 0.561859   
     axis -7.52654e-015 90 90   XYZ
    dof rx rz
    limits (-90.0 90.0)
           (-45.0 45.0)
  end
  begin
     id 22 
     name lfingers
     direction 1 -4.48927e-011 2.35758e-026   
     length 0.452985   
     axis -1.50534e-014 90 90   XYZ
    dof rx
    limits (0.0 90.0)
  end
  begin
     id 23
     name lthumb
     direction 0.707107 -6.34898e-011 0.707107   
     length 0.650399   
     axis -90 45 5.69224e-014   XYZ
    dof rx rz
    limits (-45.0 45.0)
           (-45.0 45.0)
  end
  begin
     id 24 
     name rclavicle
     direction -0.988403 0.151789 0.00439714   
     length 3.6942  
     axis 0 0 0   XYZ 
    dof ry rz
    limits (-10.0 20.0)
           (-20.0 0.0)
  end
  begin
     id 25 
     name rhumerus
     direction -1 -4.48978e-011 1.62495e-027  
     length 5.22819   
     axis 180 30 90   XYZ
    dof rx ry rz
    limits (-90.0 60.0)
           (-90.0 90.0)
           (-90.0 90.0)
  end
  begin
     id 26 
     name rradius
     direction -1 -4.48961e-011 3.47796e-027   
     length 3.40764   
     axis 180 30 90   XYZ
    dof rx
    limits (-10.0 170.0)
  end
  begin
     id 27 
     name rwrist
     direction -1 -4.48949e-011 5.89602e-027   
     length 1.70382   
     axis -3.27506e-015 -90 -90   XYZ
    dof ry
    limits (-180.0 0.0)
  end
  begin
     id 28
     name rhand
     direction -1 -4.48977e-011 1.17973e-026   
     length 0.583255   
     axis -7.52654e-015 -90 -90   XYZ
    dof rx rz
    limits (-90.0 90.0)
           (-45.0 45.0)
  end
  begin
     id 29
     name rfingers
     direction -1 -4.49099e-011 2.36408e-026   
     length 0.470235   
     axis -1.50534e-014 -90 -90   XYZ
    dof rx
    limits (0.0 90.0)
  end
  begin
     id 30
     name rthumb
     direction -0.707107 -6.35011e-011 0.707107   
     length 0.675167   
     axis -90 -45 -5.69224e-014   XYZ
    dof rx rz
    limits (-45.0 45.0)
           (-45.0 45.0)
  end
:hierarchy
  begin
    root lhipjoint rhipjoint lowerback
    lhipjoint lfemur
    lfemur ltibia
    ltibia lfoot
    lfoot ltoes
    rhipjoint rfemur
    rfemur rtibia
    rtibia rfoot
    rfoot rtoes
    lowerback upperback
    upperback thorax
    thorax lowerneck lclavicle rclavicle
    lowerneck upperneck
    upperneck head
    lclavicle lhumerus
    lhumerus lradius
    lradius lwrist
    lwrist lhand lthumb
    lhand lfingers
    rclavicle rhumerus
    rhumerus rradius
    rradius rwrist
    rwrist rhand rthumb
    rhand rfingers
  end

#!OML:ASF G:\JayActor3\Patient Classification 1\Patient 1\Session 2\male.ASF
:FULLY-SPECIFIED
:DEGREES
380
root 29.8278 17.1453 -5.77248 373.07 -86.4453 -370.738
lowerback 1.48653 2.02246 4.01551
upperback 1.15566 2.70871 1.49582
thorax 0.467772 1.36256 -0.738548
lowerneck -12.4557 -4.01795 -2.90694
upperneck 0.897504 -5.17369 4.14695
head 2.67652 -2.47015 1.54029
rclavicle 2.48481e-015 -3.18055e-015
rhumerus -30.2169 16.3229 -89.9588
rradius 43.8051
rwrist -18.1121
rhand -21.8534 4.88201
rfingers 7.12502
rthumb 4.55032 -25.0491
lclavicle 2.48481e-015 -3.18055e-015
lhumerus -50.2766 1.81848 80.6673
lradius 22.5584
lwrist 9.94604
lhand -17.4207 18.1049
lfingers 7.12502
lthumb 8.82943 47.9002
rfemur -5.3109 -1.85606 23.7994
rtibia 31.2846
rfoot -20.3393 -2.4623
rtoes 16.4193
lfemur -30.253 6.06026 -21.0982
ltibia 50.4657
lfoot -8.04882 9.83202
ltoes -14.017
381
root 29.6554 17.1492 -5.78912 377.484 -86.4663 -375.033
lowerback 1.36408 2.0777 4.14684
upperback 1.16575 2.7761 1.48865
thorax 0.556422 1.39853 -0.813847
lowerneck -12.5139 -4.04762 -2.97509
upperneck 0.827974 -5.20143 4.14953
head 2.66713 -2.48486 1.55081
rclavicle 6.01324e-014 3.18055e-015
rhumerus -29.8692 17.4831 -90.0497
rradius 45.2982
rwrist -18.4668
rhand -21.5267 4.95674
rfingers 7.12502
rthumb 4.86577 -24.9674
lclavicle 6.01324e-014 3.18055e-015
lhumerus -50.9279 1.24523 80.9476
lradius 23.1553
lwrist 10.561
lhand -17.4585 18.1434
lfingers 7.12502
lthumb 8.79293 47.9403
rfemur -4.42387 -2.14601 24.1122
rtibia 30.5208
rfoot -20.1658 -2.41382
rtoes 15.7631
lfemur -30.5866 6.11552 -21.2239
ltibia 47.3634
lfoot -8.91887 10.5485
ltoes -13.8436
382
root 29.483 17.1483 -5.8065 381.967 -86.4496 -379.387
lowerback 1.23586 2.12044 4.26836
upperback 1.1783 2.82598 1.48243
thorax 0.649806 1.42591 -0.882094
lowerneck -12.5574 -4.07036 -3.03606
upperneck 0.742431 -5.22177 4.16522
head 2.64952 -2.49574 1.56513
rclavicle 2.26615e-014 -9.54166e-015
rhumerus -29.48 18.6226 -90.1091
rradius 46.7513
rwrist -18.7783
rhand -21.2655 5.04635
rfingers 7.12502
rthumb 5.11801 -24.8718
lclavicle 2.26615e-014 -9.54166e-015
lhumerus -51.5687 0.69473 81.2386
lradius 23.7394
lwrist 11.1306
lhand -17.4796 18.1786
lfingers 7.12502
lthumb 8.77256 47.9763
rfemur -3.52227 -2.38528 24.4548
rtibia 29.7208
rfoot -20.0395 -2.43898
rtoes 15.0502
lfemur -30.8786 6.24202 -21.3431
ltibia 44.1979
lfoot -9.74029 11.1308
ltoes -13.5867
383
root 29.3105 17.1418 -5.82417 386.567 -86.4138 -383.844
lowerback 1.09239 2.15746 4.385
upperback 1.19314 2.86684 1.47736
thorax 0.753595 1.44907 -0.945513
lowerneck -12.5921 -4.0875 -3.09558
upperneck 0.647364 -5.23579 4.1971
head 2.6274 -2.50313 1.58514
rclavicle -1.54555e-014 4.77083e-015
rhumerus -29.0514 19.7411 -90.134
rradius 48.1708
rwrist -19.0608
rhand -21.0604 5.14912
rfingers 7.12502
rthumb 5.31605 -24.7642
lclavicle -1.54555e-014 4.77083e-015
lhumerus -52.1929 0.179436 81.5312
lradius 24.3049
lwrist 11.6461
lhand -17.4612 18.2156
lfingers 7.12502
lthumb 8.79034 48.0125
rfemur -2.61451 -2.55264 24.8251
rtibia 28.891
rfoot -19.9627 -2.52392
rtoes 14.2666
lfemur -31.1624 6.46353 -21.4627
ltibia 41.0191
lfoot -10.4589 11.5423
ltoes -13.3391
384
root 29.1375 17.1291 -5.84179 391.276 -86.3593 -388.397
lowerback 0.93242 2.18964 4.50308
upperback 1.21012 2.8998 1.47158
thorax 0.868736 1.46865 -1.00949
lowerneck -12.6167 -4.09907 -3.14326
upperneck 0.545386 -5.24476 4.23755
head 2.60078 -2.50785 1.60638
rclavicle 2.42517e-014 -6.36111e-015
rhumerus -28.5885 20.8248 -90.1267
rradius 49.5647
rwrist -19.3166
rhand -20.8836 5.24033
rfingers 7.12502
rthumb 5.48678 -24.6686
lclavicle 2.42517e-014 -6.36111e-015
lhumerus -52.7993 -0.290625 81.8102
lradius 24.8502
lwrist 12.1033
lhand -17.3971 18.2551
lfingers 7.12502
lthumb 8.85212 48.0494
rfemur -1.69663 -2.64231 25.2206
rtibia 28.0324
rfoot -19.9378 -2.64171
rtoes 13.4637
lfemur -31.4659 6.78979 -21.591
ltibia 37.8826
lfoot -11.0392 11.7316
ltoes -13.1768
385
root 28.9641 17.11 -5.85892 396.054 -86.2822 -393.007
lowerback 0.755066 2.21562 4.6303
upperback 1.23199 2.92275 1.46556
thorax 0.998804 1.48376 -1.07778
lowerneck -12.6278 -4.10326 -3.18542
upperneck 0.426868 -5.24532 4.28798
head 2.56593 -2.50839 1.63073
rclavicle -1.63003e-014 -4.37326e-015
rhumerus -28.0858 21.8736 -90.0864
rradius 50.9268
rwrist -19.5584
rhand -20.7186 5.32237
rfingers 7.12502
rthumb 5.64602 -24.5824
lclavicle -1.63003e-014 -4.37326e-015
lhumerus -53.3813 -0.69689 82.0607
lradius 25.3691
lwrist 12.4929
lhand -17.2758 18.2964
lfingers 7.12502
lthumb 8.96918 48.0857
rfemur -0.760919 -2.66223 25.6356
rtibia 27.1374
rfoot -19.9544 -2.77634
rtoes 12.5982
lfemur -31.8181 7.2095 -21.7317
ltibia 34.8449
lfoot -11.4514 11.668
ltoes -13.1943
386
root 28.7904 17.0847 -5.87539 401.066 -86.1924 -397.843
lowerback 0.561987 2.24104 4.77428
upperback 1.2606 2.94298 1.46023
thorax 1.14549 1.49819 -1.15362
lowerneck -12.6247 -4.10168 -3.22001
upperneck 0.289541 -5.23961 4.34275
head 2.52171 -2.50608 1.65584
rclavicle 9.59136e-015 -4.77083e-015
rhumerus -27.5433 22.88 -90.0162
rradius 52.2592
rwrist -19.7722
rhand -20.5706 5.38515
rfingers 7.12502
rthumb 5.78897 -24.5158
lclavicle 9.59136e-015 -4.77083e-015
lhumerus -53.9318 -1.03048 82.2755
lradius 25.856
lwrist 12.8211
lhand -17.1001 18.3377
lfingers 7.12502
lthumb 9.13874 48.1196
rfemur 0.196487 -2.6196 26.0611
rtibia 26.1976
rfoot -19.9832 -2.88403
rtoes 11.6952
lfemur -32.2384 7.69911 -21.8757
ltibia 31.9619
lfoot -11.6941 11.3412
ltoes -13.5421
387
root 28.6164 17.0538 -5.89078 406.155 -86.0818 -402.749
lowerback 0.356103 2.2639 4.93768
upperback 1.29408 2.95794 1.45389
thorax 1.30535 1.5107 -1.24046
lowerneck -12.5951 -4.09293 -3.24775
upperneck 0.121835 -5.22552 4.39856
head 2.4618 -2.50023 1.68106
rclavicle 4.39314e-014 1.27222e-014
rhumerus -26.9677 23.8398 -89.9218
rradius 53.5584
rwrist -19.961
rhand -20.4469 5.4366
rfingers 7.12502
rthumb 5.90839 -24.461
lclavicle 4.39314e-014 1.27222e-014
lhumerus -54.4574 -1.29842 82.4578
lradius 26.3148
lwrist 13.101
lhand -16.8784 18.3666
lfingers 7.12502
lthumb 9.35272 48.1391
rfemur 1.18138 -2.53596 26.4817
rtibia 25.207
rfoot -20.0008 -2.93102
rtoes 10.7901
lfemur -32.7317 8.15918 -21.9994
ltibia 29.2809
lfoot -11.8289 10.7664
ltoes -14.0927
388
root 28.4422 17.0179 -5.90492 411.158 -85.9468 -407.57
lowerback 0.145234 2.28275 5.11958
upperback 1.33634 2.96579 1.44576
thorax 1.4779 1.5205 -1.3389
lowerneck -12.5411 -4.07661 -3.27039
upperneck -0.0790832 -5.20209 4.45305
head 2.38562 -2.49052 1.70594
rclavicle -1.08338e-014 1.15295e-014
rhumerus -26.3564 24.748 -89.806
rradius 54.8198
rwrist -20.1208
rhand -20.3668 5.48093
rfingers 7.12502
rthumb 5.98571 -24.4145
lclavicle -1.08338e-014 1.15295e-014
lhumerus -54.9481 -1.49081 82.5989
lradius 26.7344
lwrist 13.3262
lhand -16.6263 18.3912
lfingers 7.12502
lthumb 9.59588 48.1526
rfemur 2.20022 -2.4352 26.8823
rtibia 24.1682
rfoot -19.9841 -2.8867
rtoes 9.90903
lfemur -33.2823 8.47871 -22.0601
ltibia 26.8383
lfoot -11.8777 10.0094
ltoes -14.7997
389
root 28.268 16.9778 -5.91771 415.897 -85.7866 -412.136
lowerback -0.0590871 2.29675 5.31818
upperback 1.38679 2.96613 1.43424
thorax 1.65601 1.52732 -1.4502
lowerneck -12.4572 -4.05404 -3.28532
upperneck -0.318971 -5.17122 4.50064
head 2.29012 -2.4782 1.72811
rclavicle -2.16178e-014 1.31198e-014
rhumerus -25.7257 25.5914 -89.6727
rradius 56.0544
rwrist -20.2527
rhand -20.3326 5.5227
rfingers 7.12502
rthumb 6.01875 -24.3718
lclavicle -2.16178e-014 1.31198e-014
lhumerus -55.4017 -1.61563 82.7022
lradius 27.1087
lwrist 13.4983
lhand -16.3474 18.4312
lfingers 7.12502
lthumb 9.86499 48.1801
rfemur 3.24989 -2.33812 27.2512
rtibia 23.0954
rfoot -19.9168 -2.73264
rtoes 9.05753
lfemur -33.8698 8.5712 -22.0155
ltibia 24.6524
lfoot -11.8619 9.15285
ltoes -15.6402
